<?xml version="1.0" encoding="utf-8"?><svg xmlns="http://www.w3.org/2000/svg" xmlns:xlink="http://www.w3.org/1999/xlink" width="1366" height="637" preserveAspectRatio="xMidYMid" viewBox="0 0 1366 637" style="z-index:1;margin-right:-2px;display:block;background-repeat-y:initial;background-repeat-x:initial;background-color:rgb(52, 51, 83);animation-play-state:paused" ><g transform="translate(683,318.5) scale(1,1) translate(-683,-318.5)" style="transform:matrix(1, 0, 0, 1, 0, 0);animation-play-state:paused" ><defs style="animation-play-state:paused" ><path id="path-ohtkeywii7k-1" d="M-35 -35L35 -35L35 35L-35 35Z" fill="none" stroke="inherit" stroke-width="3.4615384615384617" transform="scale(0.26)" style="transform:matrix(0.26, 0, 0, 0.26, 0, 0);animation-play-state:paused" ></path>

  
<path id="path-ohtkeywii7k-2" d="M0 -37A37 37 0 0 1 0 37A37 37 0 0 1 0 -37" fill="none" stroke="inherit" stroke-width="3.4615384615384617" transform="scale(0.26)" style="transform:matrix(0.26, 0, 0, 0.26, 0, 0);animation-play-state:paused" ></path>

  
<path id="path-ohtkeywii7k-3" d="M0 -34.641L40 34.641L-40 34.641Z" fill="none" stroke="inherit" stroke-width="3.4615384615384617" transform="scale(0.26)" style="transform:matrix(0.26, 0, 0, 0.26, 0, 0);animation-play-state:paused" ></path></defs>
<path id="path0" d="M 90.85887803160018 525.2033426178725
c 0 19.80300325081006 -4.845415689027993 5.688096678424167 -10.533512367452161 5.688096678424167
S 69.79185329669586 545.0063458686826 69.79185329669586 525.2033426178725
s 4.845415689027993 -5.688096678424167 10.533512367452161 -5.688096678424167
S 90.85887803160018 505.4003393670625 90.85887803160018 525.2033426178725
z" fill="none" stroke="none" style="animation-play-state:paused" ></path>


<use xlink:href="#path-ohtkeywii7k-1" x="0" y="0" stroke="#ddc65b" transform="translate(85.6455307006836 533.8707275390625)" style="animation-play-state:paused" ></use>
<path id="path1" d="M 128.15352274342112 373.79199458147957
c 0 32.40004727850443 -7.927671142612785 9.306396558719358 -17.234067701332144 9.306396558719358
S 93.68538734075685 406.192041859984 93.68538734075685 373.79199458147957
s 7.927671142612785 -9.306396558719358 17.234067701332144 -9.306396558719358
S 128.15352274342112 341.39194730297515 128.15352274342112 373.79199458147957
z" fill="none" stroke="none" style="animation-play-state:paused" ></path>


<use xlink:href="#path-ohtkeywii7k-3" x="0" y="0" stroke="#40bda5" transform="translate(93.90608978271484 381.76971435546875)" style="animation-play-state:paused" ></use>
<path id="path2" d="M 224.1733107601446 211.53949082538912
c 0 38.38784521830773 -9.392770638522103 11.026295966960733 -20.419066605482836 11.026295966960733
S 183.33517754917892 249.92733604369687 183.33517754917892 211.53949082538912
s 9.392770638522103 -11.026295966960733 20.419066605482836 -11.026295966960733
S 224.1733107601446 173.15164560708138 224.1733107601446 211.53949082538912
z" fill="none" stroke="none" style="animation-play-state:paused" ></path>


<use xlink:href="#path-ohtkeywii7k-1" x="0" y="0" stroke="#d7475c" transform="translate(200.9443359375 223.11605834960938)" style="animation-play-state:paused" ></use>
<path id="path3" d="M 369.49051132108895 268.54833313338514
c 0 54.991680899254895 -13.455411283860238 15.795482811488109 -29.250894095348347 15.795482811488109
S 310.9887231303922 323.54001403264004 310.9887231303922 268.54833313338514
s 13.455411283860238 -15.795482811488109 29.250894095348347 -15.795482811488109
S 369.49051132108895 213.55665223413024 369.49051132108895 268.54833313338514
z" fill="none" stroke="none" style="animation-play-state:paused" ></path>


<use xlink:href="#path-ohtkeywii7k-1" x="0" y="0" stroke="#d7475c" transform="translate(368.85162353515625 285.322509765625)" style="animation-play-state:paused" ></use>
<path id="path4" d="M 413.4968198274533 260.32396791722084
c 0 21.430137823834542 -5.243544361151004 6.15546511961205 -11.399009480763054 6.15546511961205
S 390.69880086592724 281.75410574105535 390.69880086592724 260.32396791722084
s 5.243544361151004 -6.15546511961205 11.399009480763054 -6.15546511961205
S 413.4968198274533 238.8938300933863 413.4968198274533 260.32396791722084
z" fill="none" stroke="none" style="animation-play-state:paused" ></path>


<use xlink:href="#path-ohtkeywii7k-3" x="0" y="0" stroke="#40bda5" transform="translate(411.45623779296875 271.7080993652344)" style="animation-play-state:paused" ></use>
<path id="path5" d="M 505.295916641592 72.77889013304495
c 0 27.962794152451735 -6.841960271344573 8.031866405491456 -14.873826676836028 8.031866405491456
S 475.54826328791995 100.74168428549669 475.54826328791995 72.77889013304495
s 6.841960271344573 -8.031866405491456 14.873826676836028 -8.031866405491456
S 505.295916641592 44.81609598059322 505.295916641592 72.77889013304495
z" fill="none" stroke="none" style="animation-play-state:paused" ></path>


<use xlink:href="#path-ohtkeywii7k-1" x="0" y="0" stroke="#40bda5" transform="translate(490.3769226074219 64.7468032836914)" style="animation-play-state:paused" ></use>
<path id="path6" d="M 663.8310437921908 435.6650258360563
c 0 60.95074504112578 -14.913480169637156 17.507128894791446 -32.420609064428604 17.507128894791446
S 598.9898256633336 496.6157708771821 598.9898256633336 435.6650258360563
s 14.913480169637156 -17.507128894791446 32.420609064428604 -17.507128894791446
S 663.8310437921908 374.7142807949305 663.8310437921908 435.6650258360563
z" fill="none" stroke="none" style="animation-play-state:paused" ></path>


<use xlink:href="#path-ohtkeywii7k-1" x="0" y="0" stroke="#d7475c" transform="translate(663.779052734375 441.53265380859375)" style="animation-play-state:paused" ></use>
<path id="path7" d="M 714.2205980504879 74.10305091090477
c 0 54.06980519019136 -13.229845950791502 15.530688724842198 -28.7605346756337 15.530688724842198
S 656.6995286992204 128.17285610109613 656.6995286992204 74.10305091090477
s 13.229845950791502 -15.530688724842198 28.7605346756337 -15.530688724842198
S 714.2205980504879 20.03324572071341 714.2205980504879 74.10305091090477
z" fill="none" stroke="none" style="animation-play-state:paused" ></path>


<use xlink:href="#path-ohtkeywii7k-3" x="0" y="0" stroke="#ddc65b" transform="translate(699.4111938476562 97.2686767578125)" style="animation-play-state:paused" ></use>
<path id="path8" d="M 767.7832253451775 384.2852324350602
c 0 32.359589061165046 -7.91777179156166 9.294775581398472 -17.21254737296013 9.294775581398472
S 733.3581305992573 416.64482149622523 733.3581305992573 384.2852324350602
s 7.91777179156166 -9.294775581398472 17.21254737296013 -9.294775581398472
S 767.7832253451775 351.9256433738952 767.7832253451775 384.2852324350602
z" fill="none" stroke="none" style="animation-play-state:paused" ></path>


<use xlink:href="#path-ohtkeywii7k-1" x="0" y="0" stroke="#ddc65b" transform="translate(760.4027099609375 369.1443786621094)" style="animation-play-state:paused" ></use>
<path id="path9" d="M 877.4170136808742 476.4105367159291
c 0 49.072717471017064 -12.007154274823321 14.095355018270858 -26.10250929309418 14.095355018270858
S 825.2119950946859 525.4832541869462 825.2119950946859 476.4105367159291
s 12.007154274823321 -14.095355018270858 26.10250929309418 -14.095355018270858
S 877.4170136808742 427.337819244912 877.4170136808742 476.4105367159291
z" fill="none" stroke="none" style="animation-play-state:paused" ></path>


<use xlink:href="#path-ohtkeywii7k-2" x="0" y="0" stroke="#40bda5" transform="translate(825.2317504882812 473.0942687988281)" style="animation-play-state:paused" ></use>
<path id="path10" d="M 971.3009904275156 421.7214675459449
c 0 46.20221344887884 -11.304796907704395 13.270848543826899 -24.575645451531294 13.270848543826899
S 922.149699524453 467.9236809948237 922.149699524453 421.7214675459449
s 11.304796907704395 -13.270848543826899 24.575645451531294 -13.270848543826899
S 971.3009904275156 375.5192540970661 971.3009904275156 421.7214675459449
z" fill="none" stroke="none" style="animation-play-state:paused" ></path>


<use xlink:href="#path-ohtkeywii7k-1" x="0" y="0" stroke="#40bda5" transform="translate(950.3431396484375 407.6965026855469)" style="animation-play-state:paused" ></use>
<path id="path11" d="M 1068.7013343554306 208.47357804265076
c 0 57.95734391068956 -14.181052233466593 16.64732218711296 -30.82837442057955 16.64732218711296
S 1007.0445855142715 266.4309219533403 1007.0445855142715 208.47357804265076
s 14.181052233466593 -16.64732218711296 30.82837442057955 -16.64732218711296
S 1068.7013343554306 150.5162341319612 1068.7013343554306 208.47357804265076
z" fill="none" stroke="none" style="animation-play-state:paused" ></path>


<use xlink:href="#path-ohtkeywii7k-1" x="0" y="0" stroke="#40bda5" transform="translate(1068.700927734375 208.2537841796875)" style="animation-play-state:paused" ></use>
<path id="path12" d="M 1164.8324987207316 285.98209013471325
c 0 19.36870820283052 -4.739152007075552 5.563352356132171 -10.302504363207722 5.563352356132171
S 1144.2274899943163 305.3507983375438 1144.2274899943163 285.98209013471325
s 4.739152007075552 -5.563352356132171 10.302504363207722 -5.563352356132171
S 1164.8324987207316 266.6133819318827 1164.8324987207316 285.98209013471325
z" fill="none" stroke="none" style="animation-play-state:paused" ></path>


<use xlink:href="#path-ohtkeywii7k-2" x="0" y="0" stroke="#40bda5" transform="translate(1155.5037841796875 291.67962646484375)" style="animation-play-state:paused" ></use>
<path id="path13" d="M 1224.8560082283539 545.8804646992608
c 0 37.129101668460414 -9.084780195474355 10.664741968600332 -19.749522164074687 10.664741968600332
S 1185.3569639002044 583.0095663677212 1185.3569639002044 545.8804646992608
s 9.084780195474355 -10.664741968600332 19.749522164074687 -10.664741968600332
S 1224.8560082283539 508.75136303080035 1224.8560082283539 545.8804646992608
z" fill="none" stroke="none" style="animation-play-state:paused" ></path>


<use xlink:href="#path-ohtkeywii7k-2" x="0" y="0" stroke="#ddc65b" transform="translate(1185.5390625 537.9326171875)" style="animation-play-state:paused" ></use>
<path id="path14" d="M 1270.5500426032984 431.1881840057769
c 0 21.0719969815549 -5.155914155061304 6.052594877680662 -11.208509032741967 6.052594877680662
S 1248.1330245378147 452.2601809873318 1248.1330245378147 431.1881840057769
s 5.155914155061304 -6.052594877680662 11.208509032741967 -6.052594877680662
S 1270.5500426032984 410.11618702422203 1270.5500426032984 431.1881840057769
z" fill="none" stroke="none" style="animation-play-state:paused" ></path>


<use xlink:href="#path-ohtkeywii7k-1" x="0" y="0" stroke="#d7475c" transform="translate(1248.3343505859375 425.2361145019531)" style="animation-play-state:paused" ></use></g></svg>